<svg width="122" height="32" viewBox="0 0 122 32" fill="none" xmlns="http://www.w3.org/2000/svg">
<path d="M54.9268 18.21V15.5566H61.7803V21.8301C61.1143 22.4746 60.1475 23.0439 58.8799 23.5381C57.6195 24.0251 56.3411 24.2686 55.0449 24.2686C53.3978 24.2686 51.9619 23.9248 50.7373 23.2373C49.5127 22.5426 48.5924 21.5544 47.9766 20.2725C47.3607 18.9834 47.0527 17.5833 47.0527 16.0723C47.0527 14.4323 47.3965 12.9749 48.084 11.7002C48.7715 10.4255 49.7777 9.44792 51.1025 8.76758C52.1123 8.24479 53.3691 7.9834 54.873 7.9834C56.8281 7.9834 58.3535 8.39518 59.4492 9.21875C60.5521 10.0352 61.2611 11.1667 61.5762 12.6133L58.418 13.2041C58.196 12.4307 57.777 11.8219 57.1611 11.3779C56.5524 10.9268 55.7897 10.7012 54.873 10.7012C53.4837 10.7012 52.3773 11.1416 51.5537 12.0225C50.7373 12.9033 50.3291 14.2103 50.3291 15.9434C50.3291 17.8125 50.7445 19.2161 51.5752 20.1543C52.4059 21.0853 53.4945 21.5508 54.8408 21.5508C55.5068 21.5508 56.1729 21.4219 56.8389 21.1641C57.512 20.8991 58.0885 20.5804 58.5684 20.208V18.21H54.9268ZM67.5918 24H64.5732V12.5918H67.377V14.2139C67.8568 13.4476 68.2865 12.9427 68.666 12.6992C69.0527 12.4557 69.4896 12.334 69.9766 12.334C70.6641 12.334 71.3265 12.5238 71.9639 12.9033L71.0293 15.5352C70.5208 15.2057 70.0482 15.041 69.6113 15.041C69.1888 15.041 68.8307 15.1592 68.5371 15.3955C68.2435 15.6247 68.0107 16.0436 67.8389 16.6523C67.6742 17.2611 67.5918 18.5358 67.5918 20.4766V24ZM79.8809 20.3691L82.8887 20.874C82.502 21.9769 81.8896 22.8184 81.0518 23.3984C80.221 23.9714 79.179 24.2578 77.9258 24.2578C75.9421 24.2578 74.474 23.6097 73.5215 22.3135C72.7695 21.2751 72.3936 19.9645 72.3936 18.3818C72.3936 16.4912 72.8877 15.0124 73.876 13.9453C74.8643 12.8711 76.1139 12.334 77.625 12.334C79.3223 12.334 80.6615 12.8962 81.6426 14.0205C82.6237 15.1377 83.0928 16.8529 83.0498 19.166H75.4873C75.5088 20.0612 75.7523 20.7594 76.2178 21.2607C76.6833 21.7549 77.2633 22.002 77.958 22.002C78.4307 22.002 78.8281 21.873 79.1504 21.6152C79.4727 21.3574 79.7161 20.9421 79.8809 20.3691ZM80.0527 17.3184C80.0312 16.4447 79.8057 15.7822 79.376 15.3311C78.9463 14.8727 78.4235 14.6436 77.8076 14.6436C77.1488 14.6436 76.6045 14.8835 76.1748 15.3633C75.7451 15.8431 75.5339 16.4948 75.541 17.3184H80.0527ZM92.127 20.3691L95.1348 20.874C94.748 21.9769 94.1357 22.8184 93.2979 23.3984C92.4671 23.9714 91.4251 24.2578 90.1719 24.2578C88.1882 24.2578 86.7201 23.6097 85.7676 22.3135C85.0156 21.2751 84.6396 19.9645 84.6396 18.3818C84.6396 16.4912 85.1338 15.0124 86.1221 13.9453C87.1104 12.8711 88.36 12.334 89.8711 12.334C91.5684 12.334 92.9076 12.8962 93.8887 14.0205C94.8698 15.1377 95.3389 16.8529 95.2959 19.166H87.7334C87.7549 20.0612 87.9984 20.7594 88.4639 21.2607C88.9294 21.7549 89.5094 22.002 90.2041 22.002C90.6768 22.002 91.0742 21.873 91.3965 21.6152C91.7188 21.3574 91.9622 20.9421 92.127 20.3691ZM92.2988 17.3184C92.2773 16.4447 92.0518 15.7822 91.6221 15.3311C91.1924 14.8727 90.6696 14.6436 90.0537 14.6436C89.3949 14.6436 88.8506 14.8835 88.4209 15.3633C87.9912 15.8431 87.7799 16.4948 87.7871 17.3184H92.2988ZM104.373 20.3691L107.381 20.874C106.994 21.9769 106.382 22.8184 105.544 23.3984C104.713 23.9714 103.671 24.2578 102.418 24.2578C100.434 24.2578 98.9661 23.6097 98.0137 22.3135C97.2617 21.2751 96.8857 19.9645 96.8857 18.3818C96.8857 16.4912 97.3799 15.0124 98.3682 13.9453C99.3564 12.8711 100.606 12.334 102.117 12.334C103.814 12.334 105.154 12.8962 106.135 14.0205C107.116 15.1377 107.585 16.8529 107.542 19.166H99.9795C100.001 20.0612 100.244 20.7594 100.71 21.2607C101.175 21.7549 101.756 22.002 102.45 22.002C102.923 22.002 103.32 21.873 103.643 21.6152C103.965 21.3574 104.208 20.9421 104.373 20.3691ZM104.545 17.3184C104.523 16.4447 104.298 15.7822 103.868 15.3311C103.438 14.8727 102.916 14.6436 102.3 14.6436C101.641 14.6436 101.097 14.8835 100.667 15.3633C100.237 15.8431 100.026 16.4948 100.033 17.3184H104.545ZM115.244 12.5918V14.998H113.182V19.5957C113.182 20.5267 113.2 21.071 113.235 21.2285C113.278 21.3789 113.368 21.5042 113.504 21.6045C113.647 21.7048 113.819 21.7549 114.02 21.7549C114.299 21.7549 114.703 21.6582 115.233 21.4648L115.491 23.8066C114.789 24.1074 113.994 24.2578 113.106 24.2578C112.562 24.2578 112.072 24.1683 111.635 23.9893C111.198 23.8031 110.876 23.5667 110.668 23.2803C110.467 22.9867 110.328 22.5928 110.249 22.0986C110.185 21.7477 110.152 21.0387 110.152 19.9717V14.998H108.767V12.5918H110.152V10.3252L113.182 8.56348V12.5918H115.244Z" fill="black"/>
<rect x="4" width="32" height="32" fill="#8E19B8"/>
<path d="M20.5 17L4 23.5V32H36V23.5L20.5 17Z" fill="#A112D6"/>
<g filter="url(#filter0_d)">
<path d="M20.5 19L4 12.5V0H36V12.5L20.5 19Z" fill="#F36CFF"/>
</g>
<defs>
<filter id="filter0_d" x="0" y="0" width="40" height="27" filterUnits="userSpaceOnUse" color-interpolation-filters="sRGB">
<feFlood flood-opacity="0" result="BackgroundImageFix"/>
<feColorMatrix in="SourceAlpha" type="matrix" values="0 0 0 0 0 0 0 0 0 0 0 0 0 0 0 0 0 0 127 0" result="hardAlpha"/>
<feOffset dy="4"/>
<feGaussianBlur stdDeviation="2"/>
<feComposite in2="hardAlpha" operator="out"/>
<feColorMatrix type="matrix" values="0 0 0 0 0 0 0 0 0 0 0 0 0 0 0 0 0 0 0.25 0"/>
<feBlend mode="normal" in2="BackgroundImageFix" result="effect1_dropShadow"/>
<feBlend mode="normal" in="SourceGraphic" in2="effect1_dropShadow" result="shape"/>
</filter>
</defs>
</svg>
